<svg width="512" height="512" viewBox="0 0 512 512" xmlns="http://www.w3.org/2000/svg">
  <defs>
    <linearGradient id="grad" x1="0" y1="0" x2="1" y2="1">
      <stop offset="0%" stop-color="#ff7d41"/>
      <stop offset="100%" stop-color="#ffb347"/>
    </linearGradient>
  </defs>
  <rect width="512" height="512" rx="120" fill="url(#grad)"/>
  <path d="M150 200c0-44 36-80 80-80h52c44 0 80 36 80 80a80 80 0 0 1-80 80h-20c-44 0-80 36-80 80v16c0 13-11 24-24 24h-24c-13 0-24-11-24-24v-16c0-66 54-120 120-120h20a40 40 0 1 0 0-80h-52a40 40 0 0 0-40 40v4c0 13-11 24-24 24s-24-11-24-24z" fill="white"/>
</svg>

